<svg xmlns="http://www.w3.org/2000/svg" viewBox="0 0 33.59 32.04"><defs><style>.cls-1{fill:#fbb040;}</style></defs><g id="Слой_2" data-name="Слой 2"><g id="main"><path class="cls-1" d="M33.07,13.38l-7.33,7.15,1.73,10.09a2.75,2.75,0,0,1,0,.41c0,.52-.24,1-.82,1a1.54,1.54,0,0,1-.81-.25L16.8,27,7.73,31.79a1.6,1.6,0,0,1-.81.25c-.58,0-.84-.49-.84-1a2.71,2.71,0,0,1,0-.41L7.85,20.53.5,13.38a1.55,1.55,0,0,1-.5-1c0-.6.63-.84,1.13-.92L11.26,10,15.81.83c.18-.39.52-.83,1-.83s.8.44,1,.83L22.33,10l10.13,1.48c.49.08,1.13.32,1.13.92A1.49,1.49,0,0,1,33.07,13.38Z"/></g></g></svg>